G04*
G04 #@! TF.GenerationSoftware,Altium Limited,Altium Designer,19.1.8 (144)*
G04*
G04 Layer_Color=32768*
%FSLAX42Y42*%
%MOMM*%
G71*
G01*
G75*
%ADD23C,0.20*%
%ADD24C,0.05*%
%ADD25C,0.10*%
D23*
X8750Y8369D02*
Y9004D01*
X12344D02*
X8750D01*
Y5778D02*
Y8369D01*
X12344Y5778D02*
Y9004D01*
Y5778D02*
X8750D01*
Y8369D02*
Y9004D01*
X12344D02*
X8750D01*
Y5778D02*
Y8369D01*
X12344Y5778D02*
Y9004D01*
Y5778D02*
X8750D01*
D24*
X11568Y6165D02*
Y6890D01*
X10408Y6165D02*
Y6890D01*
X11568D02*
X10408D01*
X11568Y6165D02*
X10408D01*
X9654Y7128D02*
Y7478D01*
X9269Y7128D02*
Y7478D01*
X9654D02*
X9269D01*
X9654Y7128D02*
X9269D01*
X11492Y7115D02*
Y7465D01*
X11876Y7115D02*
Y7465D01*
Y7115D02*
X11492D01*
X11876Y7465D02*
X11492D01*
X9978Y6259D02*
Y6999D01*
X9428Y6259D02*
Y6999D01*
X9978Y6259D02*
X9428D01*
X9978Y6999D02*
X9428D01*
X11107Y7561D02*
X10367D01*
X11107Y8111D02*
X10367D01*
Y7561D02*
Y8111D01*
X11107Y7561D02*
Y8111D01*
X11568Y6165D02*
Y6890D01*
X10408Y6165D02*
Y6890D01*
X11568D02*
X10408D01*
X11568Y6165D02*
X10408D01*
X9654Y7128D02*
Y7478D01*
X9269Y7128D02*
Y7478D01*
X9654D02*
X9269D01*
X9654Y7128D02*
X9269D01*
X11492Y7115D02*
Y7465D01*
X11876Y7115D02*
Y7465D01*
Y7115D02*
X11492D01*
X11876Y7465D02*
X11492D01*
X9978Y6259D02*
Y6999D01*
X9428Y6259D02*
Y6999D01*
X9978Y6259D02*
X9428D01*
X9978Y6999D02*
X9428D01*
X11107Y7561D02*
X10367D01*
X11107Y8111D02*
X10367D01*
Y7561D02*
Y8111D01*
X11107Y7561D02*
Y8111D01*
D25*
X11038Y6528D02*
X10938D01*
X10988Y6478D02*
Y6578D01*
X9511Y7303D02*
X9411D01*
X9461Y7253D02*
Y7353D01*
X11734Y7290D02*
X11634D01*
X11684Y7240D02*
Y7340D01*
X9753Y6629D02*
X9653D01*
X9703Y6579D02*
Y6679D01*
X10737Y7786D02*
Y7886D01*
X10787Y7836D02*
X10687D01*
X11038Y6528D02*
X10938D01*
X10988Y6478D02*
Y6578D01*
X9511Y7303D02*
X9411D01*
X9461Y7253D02*
Y7353D01*
X11734Y7290D02*
X11634D01*
X11684Y7240D02*
Y7340D01*
X9753Y6629D02*
X9653D01*
X9703Y6579D02*
Y6679D01*
X10737Y7786D02*
Y7886D01*
X10787Y7836D02*
X10687D01*
M02*
